<?xml version="1.0" encoding="UTF-8"?>
<svg id="Layer_2" xmlns="http://www.w3.org/2000/svg" viewBox="0 0 76.06 40.85">
  <g id="Style_guide">
    <g>
      <path d="M72.37,36.96c-.14-.58-.1-1.3-.1-2.06V5.09c0-2.78.34-4.61,3.17-4.61v-.48c-2.74.19-4.37.29-6.05.29-1.78,0-3.5-.1-6.43-.29v.48c2.83,0,3.17,1.73,3.17,4.46v22.23c-.43-2.06-1.1-3.7-1.92-5.18-3.89-7.1-11.14-8.78-16.37-16.32-.62-.96-.67-1.68-.67-2.06,0-.96.58-2.59,2.74-3.22v-.38c-1.39.14-2.35.19-3.26.19-1.2,0-2.26-.05-3.79-.19v.38c1.68.96,2.69,2.64,3.89,4.56,5.14,8.21,12.72,9.98,16.75,16.71-1.3-1.1-3.26-2.06-5.57-2.06-3.22,0-6.91,1.87-10.37,7.78-3.59,6.13-7.3,11.18-9.52,12.76-2.22-1.59-5.93-6.64-9.52-12.76-3.46-5.9-7.15-7.78-10.37-7.78-2.3,0-4.27.96-5.57,2.06,4.03-6.72,11.62-8.5,16.75-16.71,1.2-1.92,2.21-3.6,3.89-4.56v-.38c-1.54.14-2.59.19-3.79.19-.91,0-1.87-.05-3.26-.19v.38c2.16.62,2.74,2.26,2.74,3.22,0,.38-.05,1.1-.67,2.06-5.23,7.54-12.48,9.22-16.37,16.32-.82,1.49-1.49,3.12-1.92,5.18V4.94c0-2.74.34-4.46,3.17-4.46v-.48c-2.93.19-4.66.29-6.43.29-1.68,0-3.31-.1-6.05-.29v.48c2.83,0,3.17,1.82,3.17,4.61v29.81c0,.77.05,1.49-.1,2.06-.24,2.3-1.06,3.41-3.7,3.41v.48c.62-.05,1.3-.05,2.06-.1,1.3-.05,3.07-.1,5.14-.1s4.32.05,6.58.19v-.48c-3.17,0-3.84-1.58-3.84-4.99v-4.46c.24-3.02.77-5.38,1.68-7.34.62-1.34,1.63-2.02,3.12-2.02s3.12.77,4.61,2.64c1.68,2.16,2.93,4.56,4.32,6.86,2.35,4.03,4.37,7.34,5.95,9.79,1.22-.13,5.88-.03,8.04,0h0c.1,0,.23,0,.37,0,.14,0,.27,0,.37,0h0c2.16-.03,6.82-.13,8.04,0,1.58-2.45,3.6-5.76,5.95-9.79,1.39-2.3,2.64-4.7,4.32-6.86,1.49-1.87,3.12-2.64,4.61-2.64s2.5.67,3.12,2.02c.91,1.97,1.44,4.32,1.68,7.34v4.46c0,3.41-.67,4.99-3.84,4.99v.48c2.26-.14,4.51-.19,6.58-.19s3.84.05,5.14.1c.77.05,1.44.05,2.06.1v-.48c-2.64,0-3.46-1.1-3.7-3.41Z"/>
      <path d="M33.32,24.07v-7.6l-.43-1.03h1.63l3.67,8.71c-.02-.13-.02-.26-.02-.4,0-.09,0-.2.01-.3.11-1.02.7-1.87,1.32-2.77.75-1.14,1.58-2.31,1.73-4,0-.66-.08-1.11-.77-1.11v-.12c.67.05,1.07.07,1.47.07.43,0,.85-.02,1.57-.07v.12c-.69,0-.77.42-.77,1.09v7.42c0,.83.16,1.22.94,1.22v.12c-.55-.04-1.1-.05-1.6-.05s-.94.01-1.25.02c-.19.01-.35.01-.5.02v-.12c.83,0,.92-.48.92-1.33v-6.48c-.37,1.63-1.31,2.83-2.06,3.92-.26.36-.47.74-.62,1.12s-.23.69-.25.91c-.01.22-.02.35-.02.39,0,.39.11.8.29,1.24l.14.35h-1.63l-3.64-8.63v7.29c0,.98.08,1.22.92,1.22v.12c-.82-.04-1.04-.04-1.98,0v-.12c.83,0,.92-.36.92-1.22Z"/>
    </g>
  </g>
</svg>